<?xml version="1.0" encoding="iso-8859-1"?>
<!-- Generator: Adobe Illustrator 18.0.0, SVG Export Plug-In . SVG Version: 6.00 Build 0)  -->
<!DOCTYPE svg PUBLIC "-//W3C//DTD SVG 1.1//EN" "http://www.w3.org/Graphics/SVG/1.1/DTD/svg11.dtd">
<svg xmlns="http://www.w3.org/2000/svg" xmlns:xlink="http://www.w3.org/1999/xlink" version="1.1" id="Capa_1" x="0px" y="0px" viewBox="0 0 481.758 481.758" style="enable-background:new 0 0 481.758 481.758;" xml:space="preserve" width="512px" height="512px">
<path d="M479.832,173.064c-5.238-10.529-51.881-103.35-76.299-119.953c-23.49-15.975-81.035-40.607-83.474-41.648l-2.809-1.199  l-3,0.575c-0.486,0.093-48.893,9.319-73.372,9.319c-24.46,0-72.886-9.226-73.372-9.319l-3-0.575l-2.809,1.199  c-2.439,1.041-59.983,25.673-83.474,41.647C53.807,69.715,7.164,162.535,1.926,173.064L0,176.935l1.5,4.054  c0.628,1.698,16.181,41.7,84.724,50.834l5.941,0.792l21.049-29.278c9.468,54.128-4.04,181.588-20.761,242.943l-2.404,8.822  l8.573,3.182c1.453,0.54,36.8,13.209,142.256,13.209c105.457,0,140.803-12.669,142.256-13.209l8.573-3.182l-2.404-8.822  c-16.721-61.357-30.229-188.816-20.761-242.943l21.049,29.277l5.941-0.792c68.543-9.134,84.096-49.135,84.724-50.834l1.501-4.054  L479.832,173.064z M295.906,34.326c-9.83,11.487-27.107,24.458-55.027,24.458c-27.927,0-45.206-12.978-55.031-24.459  c16.873,2.703,39.72,5.833,55.031,5.833C256.189,40.158,279.033,37.028,295.906,34.326z M449.647,189.089  c-8.602,7.68-24.27,17.473-50.885,22.019l-35.354-49.177l-7.459,14.588c-7.189,14.061-14.467,47.952-8.305,129.557  c3.671,48.618,11.303,100.419,19.876,135.773c-15.403,3.477-53.097,9.644-126.641,9.644c-66.914,0-108.029-5.398-126.654-9.591  c8.579-35.354,16.217-87.185,19.89-135.826c6.162-81.604-1.115-115.496-8.304-129.557l-7.459-14.588L82.994,211.11  c-40.559-6.89-56.063-25.702-60.913-33.626c19.342-38.317,52.823-97.93,67.389-107.835c16.771-11.405,54.511-28.546,71.503-36.05  c2.966,5.069,7.445,11.601,13.757,18.094c12.016,12.358,33.245,27.091,66.148,27.091c32.903,0,54.133-14.732,66.148-27.091  c6.312-6.492,10.791-13.024,13.758-18.094c16.991,7.504,54.73,24.646,71.502,36.051c14.556,9.897,48.027,69.486,67.375,107.807  C457.92,180.256,454.789,184.496,449.647,189.089z" fill="#3498DB"/>
<g>
</g>
<g>
</g>
<g>
</g>
<g>
</g>
<g>
</g>
<g>
</g>
<g>
</g>
<g>
</g>
<g>
</g>
<g>
</g>
<g>
</g>
<g>
</g>
<g>
</g>
<g>
</g>
<g>
</g>
</svg>
