<?xml version="1.0" encoding="iso-8859-1"?>
<!-- Generator: Adobe Illustrator 19.0.0, SVG Export Plug-In . SVG Version: 6.00 Build 0)  -->
<svg xmlns="http://www.w3.org/2000/svg" xmlns:xlink="http://www.w3.org/1999/xlink" version="1.1" id="Layer_1" x="0px" y="0px" viewBox="0 0 512.001 512.001" style="enable-background:new 0 0 512.001 512.001;" xml:space="preserve" width="512px" height="512px">
<g>
	<g>
		<path d="M432.989,271.293c-2.478-10.095-8.742-18.62-17.632-24.003l-84.589-51.24c22.784-20.615,37.121-50.4,37.121-83.474    c0-3.451-0.165-6.863-0.47-10.236c17.001-9.24,27.669-26.904,27.669-46.661c0-29.318-23.852-53.169-53.169-53.169    c-12.008,0-23.392,3.967-32.699,11.258C293.201,4.996,274.829,0,255.312,0c-19.517,0-37.889,4.996-53.908,13.77    c-9.299-7.292-20.686-11.258-32.703-11.258c-29.318,0-53.169,23.852-53.169,53.169c0,19.76,10.67,37.423,27.673,46.663    c-0.305,3.372-0.47,6.783-0.47,10.233c0,33.341,14.574,63.338,37.679,83.97l-83.769,50.743    c-8.892,5.383-15.155,13.909-17.634,24.003c-2.478,10.096-0.876,20.553,4.513,29.443c7.308,12.061,20.17,18.735,33.342,18.734    c6.861,0,13.807-1.812,20.091-5.617l20.832-12.619c-5.285,22.263-2.835,45.13,6.671,65.344l-13.782,101.713    c-2.878,21.03,11.881,40.48,32.928,43.36c1.738,0.232,3.497,0.35,5.228,0.35c19.117,0,35.497-14.294,38.1-33.254l7.768-56.744    c6.326,1.274,12.828,1.944,19.436,1.967c0.391,0.001,0.782,0.002,1.172,0.002s0.781-0.001,1.171-0.002    c6.607-0.023,13.107-0.692,19.431-1.966l7.78,56.746c2.602,18.956,18.976,33.251,38.088,33.251c1.731,0,3.49-0.118,5.256-0.353    c10.19-1.395,19.223-6.672,25.437-14.861c6.215-8.189,8.864-18.311,7.464-28.487l-13.816-101.636    c9.677-20.528,12.08-43.8,6.482-66.399l22.44,13.59c6.284,3.805,13.228,5.617,20.089,5.617c13.17,0,26.035-6.674,33.341-18.734    C433.865,291.846,435.468,281.39,432.989,271.293z M341.919,19.664c19.86,0,36.018,16.158,36.018,36.018    c0,11.315-5.172,21.612-13.728,28.311c-6.324-24.073-20.435-45.024-39.471-59.979C329.95,21.174,335.817,19.664,341.919,19.664z     M132.683,55.682c0-19.86,16.158-36.018,36.018-36.018c6.108,0,11.976,1.51,17.188,4.35    c-19.038,14.956-33.149,35.908-39.473,59.982C137.857,77.297,132.683,66.998,132.683,55.682z M159.886,112.577    c0-52.618,42.808-95.426,95.426-95.426s95.426,42.808,95.426,95.426c0,52.618-42.808,95.426-95.426,95.426    S159.886,165.196,159.886,112.577z M163.698,277.604l-35.625,21.579c-10.261,6.211-23.664,2.923-29.88-7.336    c-3.014-4.973-3.911-10.819-2.525-16.463c1.386-5.644,4.887-10.41,9.862-13.422l73.209-44.347L163.698,277.604z M209.944,476.417    c-1.443,10.508-10.517,18.432-21.108,18.432c-0.975,0-1.971-0.067-2.931-0.194c-11.649-1.595-19.829-12.378-18.232-24.05    l11.082-81.793c10.758,12.729,24.251,22.353,39.309,28.283L209.944,476.417z M256.423,406.818c-0.741,0.002-1.481,0.002-2.222,0    c-25.388-0.087-48.909-11.664-64.534-31.762c-15.724-20.225-21.172-46.07-14.943-70.906l23.688-94.469    c16.707,9.828,36.155,15.474,56.9,15.474c20.746,0,40.197-5.647,56.905-15.476l23.687,94.472    c6.227,24.836,0.781,50.68-14.945,70.905C305.335,395.154,281.812,406.73,256.423,406.818z M338.813,486.418    c-3.443,4.537-8.451,7.462-14.071,8.232c-0.988,0.132-1.984,0.199-2.959,0.199c-10.584,0-19.653-7.924-21.095-18.43l-8.132-59.322    c15.043-5.923,28.524-15.532,39.278-28.242l11.114,81.767C343.725,476.27,342.256,481.881,338.813,486.418z M413.807,291.848    c-6.215,10.258-19.619,13.547-29.878,7.336l-37.245-22.561l-15.041-59.988l74.829,45.328c4.973,3.011,8.474,7.778,9.86,13.422    C417.719,281.027,416.821,286.875,413.807,291.848z" fill="#3498DB"/>
	</g>
</g>
<g>
	<g>
		<path d="M263.031,139.713h-15.436c-4.736,0-8.576,3.84-8.576,8.576s3.84,8.576,8.576,8.576h15.436c4.736,0,8.576-3.84,8.576-8.576    S267.767,139.713,263.031,139.713z" fill="#3498DB"/>
	</g>
</g>
<g>
	<g>
		<circle cx="305.627" cy="131.14" r="8.576" fill="#3498DB"/>
	</g>
</g>
<g>
	<g>
		<circle cx="205.006" cy="131.14" r="8.576" fill="#3498DB"/>
	</g>
</g>
<g>
</g>
<g>
</g>
<g>
</g>
<g>
</g>
<g>
</g>
<g>
</g>
<g>
</g>
<g>
</g>
<g>
</g>
<g>
</g>
<g>
</g>
<g>
</g>
<g>
</g>
<g>
</g>
<g>
</g>
</svg>
