<?xml version="1.0" encoding="iso-8859-1"?>
<!-- Generator: Adobe Illustrator 16.0.0, SVG Export Plug-In . SVG Version: 6.00 Build 0)  -->
<!DOCTYPE svg PUBLIC "-//W3C//DTD SVG 1.1//EN" "http://www.w3.org/Graphics/SVG/1.1/DTD/svg11.dtd">
<svg xmlns="http://www.w3.org/2000/svg" xmlns:xlink="http://www.w3.org/1999/xlink" version="1.1" id="Capa_1" x="0px" y="0px" width="512px" height="512px" viewBox="0 0 791.985 791.985" style="enable-background:new 0 0 791.985 791.985;" xml:space="preserve">
<g>
	<g id="Shape_1">
		<g>
			<path d="M644.502,165.972c3.334-2.765,5.59-6.771,5.59-11.464s-2.256-8.699-5.59-11.464v-42.958     C644.502,44.901,599.885,0,545.045,0H243.145c-54.826,0-99.443,44.901-99.443,100.085v47.622     c-1.061,2.062-1.809,4.319-1.809,6.801s0.748,4.738,1.809,6.801v467.799c-1.061,2.077-1.809,4.319-1.809,6.801     c0,2.48,0.748,4.738,1.809,6.801v49.19c0,55.185,44.617,100.086,99.443,100.086H545.03c54.842,0,99.459-44.901,99.459-100.086     v-44.527c3.348-2.75,5.604-6.771,5.604-11.464c0-4.679-2.256-8.699-5.59-11.465V165.972z M614.608,691.914     c0,38.608-31.209,69.997-69.562,69.997H243.145c-38.354,0-69.549-31.403-69.549-69.997v-40.955h440.999v40.955H614.608z      M614.608,620.871H173.596V169.56h440.999v451.312H614.608z M614.608,139.471H173.596v-39.386     c0-38.608,31.195-69.997,69.549-69.997H545.03c38.355,0,69.564,31.404,69.564,69.997v39.386H614.608z M394.155,737.623     c10.971,0,19.865-8.954,19.865-19.984c0-11.031-8.895-19.984-19.865-19.984c-10.971,0-19.85,8.953-19.85,19.984     C374.305,728.669,383.184,737.623,394.155,737.623z" fill="#3498DB"/>
		</g>
	</g>
</g>
<g>
</g>
<g>
</g>
<g>
</g>
<g>
</g>
<g>
</g>
<g>
</g>
<g>
</g>
<g>
</g>
<g>
</g>
<g>
</g>
<g>
</g>
<g>
</g>
<g>
</g>
<g>
</g>
<g>
</g>
</svg>
