<?xml version="1.0" encoding="iso-8859-1"?>
<!-- Generator: Adobe Illustrator 17.1.0, SVG Export Plug-In . SVG Version: 6.00 Build 0)  -->
<!DOCTYPE svg PUBLIC "-//W3C//DTD SVG 1.1//EN" "http://www.w3.org/Graphics/SVG/1.1/DTD/svg11.dtd">
<svg xmlns="http://www.w3.org/2000/svg" xmlns:xlink="http://www.w3.org/1999/xlink" version="1.1" id="Capa_1" x="0px" y="0px" viewBox="0 0 308.127 308.127" style="enable-background:new 0 0 308.127 308.127;" xml:space="preserve" width="512px" height="512px">
<path d="M244.789,217.012c-15.971,0-33.044-6.148-49.256-18.087c-28.23-20.79-35.009-43.697-35.725-59.254v0  c-0.015-0.333-0.027-0.666-0.035-0.997h-11.417c-0.008,0.331-0.02,0.664-0.035,0.997c-0.716,15.556-7.495,38.464-35.725,59.253  c-24.499,18.042-50.969,22.861-72.621,13.219c-15.853-7.058-27.059-21.394-28.551-36.521c-0.571-5.79-1.333-13.515-1.124-21.887H7.5  c-4.142,0-7.5-3.358-7.5-7.5s3.358-7.5,7.5-7.5h4.373c0.75-3.771,1.81-7.522,3.274-11.149c7.951-19.69,25.686-31.49,52.712-35.069  c20.383-2.7,37.793-1.498,51.753,3.572c1.701,0.617,3.344,1.332,4.923,2.136h59.056c1.58-0.804,3.223-1.519,4.923-2.136  c13.96-5.07,31.373-6.272,51.753-3.572c27.026,3.58,44.761,15.379,52.712,35.069c1.464,3.627,2.524,7.378,3.274,11.149h4.373  c4.142,0,7.5,3.358,7.5,7.5s-3.358,7.5-7.5,7.5h-2.799c0.208,8.372-0.554,16.097-1.125,21.887  c-1.492,15.128-12.698,29.463-28.551,36.521C260.829,215.405,252.953,217.012,244.789,217.012z M188.937,112.396  c-9.119,5.352-14.657,15.472-14.146,26.586l0,0c0.565,12.296,6.167,30.582,29.635,47.865c27.429,20.199,47.878,15.935,57.625,11.594  c11.01-4.902,18.753-14.437,19.724-24.29c1.374-13.929,2.296-28.564-2.705-40.948c-5.86-14.513-19.197-22.958-40.773-25.815  c-17.965-2.38-32.993-1.437-44.664,2.801c-1.445,0.525-2.827,1.158-4.137,1.887C189.316,112.19,189.129,112.297,188.937,112.396z   M88.007,106.108c-5.669,0-11.734,0.426-18.178,1.28c-21.576,2.858-34.913,11.302-40.773,25.815  c-5,12.384-4.078,27.019-2.705,40.948c0.971,9.854,8.713,19.388,19.724,24.29c9.748,4.339,30.196,8.605,57.625-11.594  c23.469-17.284,29.07-35.569,29.635-47.865l0,0c0.512-11.114-5.027-21.234-14.146-26.586c-0.192-0.099-0.379-0.206-0.561-0.32  c-1.311-0.729-2.692-1.362-4.137-1.887C107.008,107.471,98.142,106.108,88.007,106.108z M154.064,123.675h7.873  c1.203-3.712,2.881-7.223,4.981-10.449h-25.708c2.1,3.226,3.779,6.737,4.981,10.449H154.064z" fill="#3498db"/>
<g>
</g>
<g>
</g>
<g>
</g>
<g>
</g>
<g>
</g>
<g>
</g>
<g>
</g>
<g>
</g>
<g>
</g>
<g>
</g>
<g>
</g>
<g>
</g>
<g>
</g>
<g>
</g>
<g>
</g>
</svg>
