<?xml version="1.0" encoding="iso-8859-1"?>
<!-- Generator: Adobe Illustrator 19.0.0, SVG Export Plug-In . SVG Version: 6.00 Build 0)  -->
<svg xmlns="http://www.w3.org/2000/svg" xmlns:xlink="http://www.w3.org/1999/xlink" version="1.1" id="Layer_1" x="0px" y="0px" viewBox="0 0 512 512" style="enable-background:new 0 0 512 512;" xml:space="preserve" width="512px" height="512px">
<g>
	<g>
		<path d="M130.723,0C62.819,0,40.851,97.246,40.851,144.34c0,38.173,24.342,72.159,59.915,84.733v252.969    c0,16.519,13.438,29.957,29.957,29.957c16.519,0,29.957-13.438,29.957-29.957V229.073c35.573-12.573,59.915-46.559,59.915-84.733    C220.596,97.246,198.628,0,130.723,0z M150.336,215.207c-3.543,0.978-5.996,4.201-5.996,7.875v258.961    c0,7.509-6.108,13.617-13.617,13.617c-7.509,0-13.617-6.108-13.617-13.617V223.082c0-3.675-2.453-6.898-5.996-7.875    c-31.746-8.766-53.919-37.908-53.919-70.866c0-40.099,18.516-128,73.532-128c55.016,0,73.532,87.901,73.532,128    C204.255,177.299,182.082,206.441,150.336,215.207z" fill="#3498DB"/>
	</g>
</g>
<g>
	<g>
		<path d="M354.043,0c-4.512,0-8.17,3.658-8.17,8.17v111.66h-19.971V8.17c0-4.512-3.658-8.17-8.17-8.17    c-4.512,0-8.17,3.658-8.17,8.17v111.66h-19.971V8.17c0-4.512-3.658-8.17-8.17-8.17c-4.512,0-8.17,3.658-8.17,8.17v111.66h-19.972    V8.17c0-4.512-3.658-8.17-8.17-8.17s-8.17,3.658-8.17,8.17v163.404c0,23.068,12.664,44.108,32.681,55.011v255.457    c0,16.519,13.438,29.957,29.957,29.957c16.519,0,29.957-13.438,29.957-29.957V226.585c20.017-10.902,32.681-31.942,32.681-55.011    V8.17C362.213,3.658,358.555,0,354.043,0z M345.872,171.574c0,18.403-10.906,35.06-27.782,42.436    c-2.975,1.301-4.899,4.24-4.899,7.487v260.545c0,7.509-6.108,13.617-13.617,13.617s-13.617-6.108-13.617-13.617V221.498    c0-3.247-1.923-6.186-4.899-7.487c-16.878-7.376-27.782-24.034-27.782-42.436V136.17h92.596V171.574z" fill="#3498DB"/>
	</g>
</g>
<g>
	<g>
		<path d="M424.851,0c-25.529,0-46.298,20.769-46.298,46.298v190.638c0,19.727,14.058,36.234,32.681,40.031v205.076    c0,16.519,13.438,29.957,29.957,29.957c16.519,0,29.957-13.438,29.957-29.957V46.298C471.149,20.769,450.38,0,424.851,0z     M454.809,482.043c0,7.509-6.108,13.617-13.617,13.617s-13.617-6.108-13.617-13.617V277.787h2.723c4.512,0,8.17-3.658,8.17-8.17    c0-4.512-3.658-8.17-8.17-8.17h-10.894c-13.516,0-24.511-10.995-24.511-24.511V46.298c0-16.519,13.438-29.957,29.957-29.957    c16.519,0,29.957,13.438,29.957,29.957V482.043z" fill="#3498DB"/>
	</g>
</g>
<g>
	<g>
		<circle cx="98.043" cy="128" r="8.17" fill="#3498DB"/>
	</g>
</g>
<g>
	<g>
		<circle cx="130.723" cy="160.681" r="8.17" fill="#3498DB"/>
	</g>
</g>
<g>
</g>
<g>
</g>
<g>
</g>
<g>
</g>
<g>
</g>
<g>
</g>
<g>
</g>
<g>
</g>
<g>
</g>
<g>
</g>
<g>
</g>
<g>
</g>
<g>
</g>
<g>
</g>
<g>
</g>
</svg>
