<?xml version="1.0" encoding="iso-8859-1"?>
<!-- Generator: Adobe Illustrator 18.0.0, SVG Export Plug-In . SVG Version: 6.00 Build 0)  -->
<!DOCTYPE svg PUBLIC "-//W3C//DTD SVG 1.1//EN" "http://www.w3.org/Graphics/SVG/1.1/DTD/svg11.dtd">
<svg xmlns="http://www.w3.org/2000/svg" xmlns:xlink="http://www.w3.org/1999/xlink" version="1.1" id="Capa_1" x="0px" y="0px" viewBox="0 0 480.034 480.034" style="enable-background:new 0 0 480.034 480.034;" xml:space="preserve" width="512px" height="512px">
<path d="M445.752,83.276c-17.238-23.622-34.73-33.8-35.467-34.222l-6.612-3.787l-5.406,5.37  c-89.325,88.736-127.401,162.184-152.598,210.785c-22.566,43.528-32.599,61.192-54.57,61.192c-10.374,0-16.021-5.606-21.483-11.028  c-4.381-4.35-9.346-9.279-16.528-9.279c-61.229,0-105.52,14.615-131.641,43.44c-20.431,22.545-21.377,45.589-21.407,46.56L0,393.574  l9.252,41.193h272.615l8.812-39.232c18.918-48.775,44.652-89.98,76.496-122.484c9.946-10.151,19.836-18.756,29.254-26.015v187.731  h48.94l1.399-8.346c1.358-8.099,33.266-198.681,33.266-228.395C480.034,142.01,461.392,104.706,445.752,83.276z M25.258,414.767  l-2.728-12.148H268.59l-2.729,12.148H25.258z M396.429,222.217c-13.796,9.533-28.619,21.608-43.54,36.837  c-32.493,33.166-58.897,74.725-78.581,123.564H22.281c2.188-6.572,6.486-15.486,14.926-24.46  c21.886-23.272,61.504-35.659,114.629-35.85c0.949,0.75,2.5,2.29,3.689,3.471c6.342,6.296,16.958,16.835,35.573,16.835  c35.007,0,49.854-28.638,72.326-71.987c24.059-46.408,60.131-115.993,143.029-199.878c5.763,4.524,14.811,12.706,23.767,25.179  c18.521,25.792,28.494,57.542,29.691,94.475c-11.883,3.639-35.579,12.536-63.461,31.799L396.429,222.217z M416.429,414.767v-12.148  h14.025c-0.693,4.199-1.367,8.26-2.015,12.148H416.429z M433.736,382.619h-17.308V233.025c8.658-5.483,16.504-9.721,23.096-12.929  c7.616-3.706,14.253-6.392,19.514-8.288C455.539,245.513,443.501,322.735,433.736,382.619z" fill="#3498DB"/>
<g>
</g>
<g>
</g>
<g>
</g>
<g>
</g>
<g>
</g>
<g>
</g>
<g>
</g>
<g>
</g>
<g>
</g>
<g>
</g>
<g>
</g>
<g>
</g>
<g>
</g>
<g>
</g>
<g>
</g>
</svg>
