<?xml version="1.0" encoding="iso-8859-1"?>
<!DOCTYPE svg PUBLIC "-//W3C//DTD SVG 1.1//EN" "http://www.w3.org/Graphics/SVG/1.1/DTD/svg11.dtd">
<svg xmlns="http://www.w3.org/2000/svg" xmlns:xlink="http://www.w3.org/1999/xlink" version="1.1" viewBox="0 0 427.438 427.438" enable-background="new 0 0 427.438 427.438" width="512px" height="512px">
  <g>
    <path d="M362.76,0H64.679C53.815,0,44.977,8.838,44.977,19.702v400.237c0,4.142,3.358,7.5,7.5,7.5h322.484   c4.142,0,7.5-3.358,7.5-7.5V19.702C382.461,8.838,373.623,0,362.76,0z M367.461,19.702v55.295h-175.49V15H362.76   C365.352,15,367.461,17.109,367.461,19.702z M64.679,15h112.292v59.996H59.977V19.702C59.977,17.109,62.087,15,64.679,15z    M59.977,412.438V89.996h307.484v322.442H59.977z" fill="#3498DB"/>
    <path d="m213.719,113.736c-76.09,0-137.994,61.904-137.994,137.993s61.904,137.993 137.994,137.993 137.994-61.902 137.994-137.992-61.904-137.994-137.994-137.994zm0,260.987c-67.819,5.68434e-14-122.994-55.175-122.994-122.993s55.175-122.993 122.994-122.993 122.993,55.175 122.993,122.993-55.174,122.993-122.993,122.993z" fill="#3498DB"/>
    <path d="m213.719,156.331c-52.604,0-95.399,42.796-95.399,95.399s42.796,95.399 95.399,95.399c52.603,0 95.399-42.796 95.399-95.399s-42.795-95.399-95.399-95.399zm0,175.798c-44.333,0-80.399-36.067-80.399-80.399s36.067-80.399 80.399-80.399c25.205,0 47.727,11.668 62.479,29.875-10.819,14.552-16.733,32.26-16.733,50.521 0,18.256 5.914,35.967 16.733,50.528-14.752,18.206-37.274,29.874-62.479,29.874zm71.364-43.439c-6.889-11.022-10.618-23.82-10.618-36.964 0-13.147 3.728-25.943 10.617-36.959 5.76,11.075 9.036,23.639 9.036,36.962-5.68434e-14,13.323-3.276,25.886-9.035,36.961z" fill="#3498DB"/>
    <path d="m278.996,68.997c13.233,0 23.999-10.766 23.999-23.999s-10.766-23.999-23.999-23.999-23.999,10.766-23.999,23.999 10.766,23.999 23.999,23.999zm0-32.998c4.962,0 8.999,4.037 8.999,8.999s-4.037,8.999-8.999,8.999-8.999-4.037-8.999-8.999 4.037-8.999 8.999-8.999z" fill="#3498DB"/>
    <path d="m334.463,68.997c13.233,0 23.999-10.766 23.999-23.999s-10.766-23.999-23.999-23.999-23.999,10.766-23.999,23.999 10.766,23.999 23.999,23.999zm0-32.998c4.962,0 8.999,4.037 8.999,8.999s-4.037,8.999-8.999,8.999-8.999-4.037-8.999-8.999 4.037-8.999 8.999-8.999z" fill="#3498DB"/>
  </g>
</svg>
