<?xml version="1.0" encoding="iso-8859-1"?>
<!DOCTYPE svg PUBLIC "-//W3C//DTD SVG 1.1//EN" "http://www.w3.org/Graphics/SVG/1.1/DTD/svg11.dtd">
<svg xmlns="http://www.w3.org/2000/svg" xmlns:xlink="http://www.w3.org/1999/xlink" version="1.1" viewBox="0 0 315 315" enable-background="new 0 0 315 315" width="512px" height="512px">
  <path d="M308,117.673h-16.408V70.424c0-3.866-3.134-7-7-7H30.408c-3.866,0-7,3.134-7,7v47.249H7c-3.866,0-7,3.134-7,7v101.281  c0,3.866,3.134,7,7,7h16.408v11.622c0,3.866,3.134,7,7,7c3.866,0,7-3.134,7-7v-11.622h240.184v11.622c0,3.866,3.134,7,7,7  s7-3.134,7-7v-11.622H308c3.866,0,7-3.134,7-7V124.673C315,120.807,311.866,117.673,308,117.673z M37.408,77.424h240.184v40.249  h-16.406c-3.866,0-7,3.134-7,7v47.83H60.814v-47.83c0-3.866-3.134-7-7-7H37.408V77.424z M301,218.954H14v-87.281h32.814v47.83  c0,3.866,3.134,7,7,7h207.371c3.866,0,7-3.134,7-7v-47.83H301V218.954z" fill="#3498DB"/>
</svg>
