<?xml version="1.0" encoding="utf-8"?>
<!-- Generator: Adobe Illustrator 19.1.0, SVG Export Plug-In . SVG Version: 6.00 Build 0)  -->
<svg xmlns="http://www.w3.org/2000/svg" xmlns:xlink="http://www.w3.org/1999/xlink" version="1.1" id="Layer_1" x="0px" y="0px" viewBox="0 0 64 64" enable-background="new 0 0 64 64" xml:space="preserve" width="512px" height="512px">
<g id="Diamond-ring">
	<path d="M35.7093506,18.7474995L44.9108505,7.0899c0.3196983-0.4043002,0.2747002-0.9875002-0.1030006-1.3386002L38.9080505,0.265   C38.724762,0.0948,38.483448,0,38.233448,0H25.4928493c-0.2500877,0-0.4913998,0.0948-0.6746998,0.265l-5.8997002,5.4863   c-0.3776875,0.3511-0.4226875,0.9342999-0.1029987,1.3386002l9.2348003,11.7006006   C17.3659496,20.6669998,9.2193508,30.0072002,9.2193508,41.2212982C9.2193508,53.7820015,19.4388504,64,31.9999504,64   c12.5611992,0,22.7807007-10.2179985,22.7807007-22.7787018C54.7806511,29.9230003,46.5118484,20.5245991,35.7093506,18.7474995z    M25.1802502,2.6336l1.5410995,3.0828001h-4.855999L25.1802502,2.6336z M41.8608513,5.7164001h-4.8567009L38.5458488,2.6336   L41.8608513,5.7164001z M34.4672508,7.6974001l-2.5886002,9.3832998l-2.5018005-9.3832998H34.4672508z M29.7698498,5.7164001   l2.0928001-2.6164002l2.0927982,2.6164002H29.7698498z M36.5217628,7.6974001h5.3859978l-8.2794113,10.4891005   L36.5217628,7.6974001z M35.4443512,4.4067998l-1.9403-2.4258997h3.1531982L35.4443512,4.4067998z M28.2809505,4.4057999   L27.0688496,1.9809h3.1520996L28.2809505,4.4057999z M27.3264503,7.6974001l2.8106003,10.5397997L21.8183498,7.6974001H27.3264503z    M31.9999504,62.0191002c-11.469101,0-20.7996998-9.330101-20.7996998-20.797802   c0-10.6111984,7.9925995-19.3764973,18.2710991-20.6302986l1.6135998,2.0445995   c0.1882,0.2379017,0.4745007,0.3772011,0.7777004,0.3772011c0.3032017,0,0.5894985-0.1392994,0.7777004-0.3772011   l1.6432991-2.0819988c10.3977013,1.1417999,18.5161133,9.9713001,18.5161133,20.6676979   C52.7997627,52.6889992,43.4691505,62.0191002,31.9999504,62.0191002z" fill="#3498DB"/>
	<path d="M31.9995499,23.8871994c-9.5573997,0-17.3326988,7.7757015-17.3326988,17.3340988   c0,9.5574036,7.7753,17.3320999,17.3326988,17.3320999c9.5578003,0,17.3335991-7.7746964,17.3335991-17.3320999   C49.333149,31.6629009,41.5573502,23.8871994,31.9995499,23.8871994z M31.9995499,56.5724983   c-8.4648991,0-15.3516998-6.8867989-15.3516998-15.3512001c0-8.4653969,6.8868008-15.353199,15.3516998-15.353199   c8.4653015,0,15.3526001,6.8878021,15.3526001,15.353199C47.35215,49.6856995,40.4648514,56.5724983,31.9995499,56.5724983z" fill="#3498DB"/>
</g>
<g>
</g>
<g>
</g>
<g>
</g>
<g>
</g>
<g>
</g>
<g>
</g>
<g>
</g>
<g>
</g>
<g>
</g>
<g>
</g>
<g>
</g>
<g>
</g>
<g>
</g>
<g>
</g>
<g>
</g>
</svg>
