<?xml version="1.0" encoding="iso-8859-1"?>
<!DOCTYPE svg PUBLIC "-//W3C//DTD SVG 1.1//EN" "http://www.w3.org/Graphics/SVG/1.1/DTD/svg11.dtd">
<svg xmlns="http://www.w3.org/2000/svg" xmlns:xlink="http://www.w3.org/1999/xlink" version="1.1" viewBox="0 0 315 315" enable-background="new 0 0 315 315" width="512px" height="512px">
  <path d="m285.61,145.248l-61.643-133.682c-3.041-6.593-10.781-11.566-18.005-11.566h-96.924c-7.224,0-14.964,4.973-18.005,11.566l-61.643,133.682c-1.932,4.188-1.771,8.57 0.438,12.022 2.199,3.437 6.082,5.407 10.651,5.407h110.021v83.243c-34.008,3-62.089,27.654-68.104,60.83-0.37,2.042 0.185,4.143 1.515,5.735 1.33,1.593 3.298,2.514 5.373,2.514h136.432c2.075,0 4.043-0.921 5.373-2.514 1.33-1.593 1.885-3.693 1.515-5.735-6.016-33.175-34.097-57.829-68.104-60.83v-83.243h46.644v27.861c-8.034,2.903-13.807,10.624-13.807,19.697 0,11.549 9.334,20.944 20.807,20.944 11.474,0 20.808-9.395 20.808-20.944 0-9.073-5.773-16.795-13.808-19.697v-27.861h49.378c4.569,0 8.452-1.971 10.651-5.407 2.209-3.452 2.369-7.834 0.437-12.022zm-68.904,155.752h-118.412c8.212-24.42 31.867-41.389 59.205-41.389s50.994,16.969 59.207,41.389zm1.438-83.819c-3.753,0-6.807-3.115-6.807-6.944 0-3.828 3.054-6.942 6.807-6.942 3.754,0 6.808,3.114 6.808,6.942-0.001,3.828-3.054,6.944-6.808,6.944zm-174.919-68.503l60.521-131.248c0.754-1.635 3.523-3.43 5.292-3.43h96.924c1.769,0 4.538,1.795 5.292,3.43l60.521,131.248h-228.55z" fill="#3498DB"/>
</svg>
