<?xml version="1.0" encoding="iso-8859-1"?>
<!-- Generator: Adobe Illustrator 19.0.0, SVG Export Plug-In . SVG Version: 6.00 Build 0)  -->
<svg xmlns="http://www.w3.org/2000/svg" xmlns:xlink="http://www.w3.org/1999/xlink" version="1.1" id="Capa_1" x="0px" y="0px" viewBox="0 0 512.001 512.001" style="enable-background:new 0 0 512.001 512.001;" xml:space="preserve" width="512px" height="512px">
<g>
	<g>
		<path d="M403.461,206.334c-3.781-1.686-8.216,0.015-9.902,3.798c-1.686,3.784,0.015,8.216,3.797,9.902    c22.835,10.175,28.182,40.089,10.676,57.598c-13.884,13.885-36.356,13.89-50.243,0c-17.533-17.536-12.128-47.439,10.675-57.598    c3.784-1.686,5.484-6.118,3.799-9.902c-1.687-3.784-6.12-5.484-9.902-3.799c-5.666,2.525-10.773,6.038-15.178,10.444    c-29.359,29.363-12.472,79.691,28.228,85.71v116.001c0,43.293-35.215,78.513-78.5,78.513c-43.286,0-78.5-35.222-78.5-78.513    V313.136c26.825,0,25.589,0.051,26.514-0.068c0.809-0.106,1.496-0.318,2.108-0.592c0.595-0.268,1.239-0.662,1.791-1.131    c0.287-0.244,0.699-0.666,0.883-0.887c0.232-0.275,0.448-0.574,0.674-0.951c0.213-0.352,0.4-0.725,0.47-0.895    c0.011-0.026,0.032-0.075,0.036-0.084l10.484-24.25c1.643-3.802-0.106-8.215-3.907-9.859c-3.804-1.644-8.216,0.105-9.859,3.908    l-8.564,19.81c-6.854,0-49.402,0-56.255,0l-29.192-67.524c8.047,1.12,3.186,0.84,102.571,0.84c4.095,0,8.123-0.291,12.068-0.841    l-5.498,12.718c-1.644,3.802,0.106,8.216,3.907,9.859c3.812,1.647,8.219-0.114,9.859-3.908l10.081-23.317    c33.053-12.365,56.649-44.271,56.649-81.59v-39.274c0-27.185-12.777-52.768-34.361-69.233C313.984,17.719,300.338,0,281.77,0    c-25.01,0-37.631,30.405-19.928,48.112c5.322,5.323,12.399,8.256,19.928,8.256c7.214,0,14.009-2.699,19.247-7.608    c17.123,13.658,27.215,34.374,27.215,56.344v39.274c0,39.745-32.33,72.079-72.069,72.079H165.66    c-39.738,0-72.067-32.335-72.067-72.079v-39.274c0-21.97,10.091-42.686,27.213-56.346c11.072,10.379,28.392,10.14,39.177-0.646    C177.701,30.386,165.046,0,140.054,0c-18.552,0-32.218,17.702-27.101,35.867c-21.582,16.465-34.359,42.051-34.359,69.235v39.274    c0,37.318,23.597,69.225,56.65,81.591l35.73,82.646c1.187,2.746,3.893,4.523,6.883,4.523h25.557V418.49    c0,51.563,41.943,93.511,93.498,93.511s93.498-41.95,93.498-93.511V302.487c10.649-1.576,20.476-6.499,28.227-14.251    C443.573,263.298,435.888,220.781,403.461,206.334z M291.091,37.507c-2.489,2.491-5.799,3.862-9.32,3.862    c-3.522,0-6.831-1.372-9.321-3.862c-8.278-8.278-2.387-22.509,9.32-22.509C293.482,14.998,299.368,29.228,291.091,37.507z     M140.054,14.998c11.7,0,17.605,14.223,9.322,22.509c-5.153,5.153-13.489,5.154-18.643,0    C122.457,29.229,128.348,14.998,140.054,14.998z" fill="#3498DB"/>
	</g>
</g>
<g>
	<g>
		<path d="M382.909,226.974c-22.675,0-34.077,27.558-18.049,43.589c9.977,9.978,26.122,9.978,36.101-0.001    C416.988,254.532,405.585,226.974,382.909,226.974z M382.91,263.041c-9.343,0-14.065-11.364-7.443-17.986    c4.114-4.115,10.773-4.115,14.888,0C396.97,251.672,392.262,263.041,382.91,263.041z" fill="#3498DB"/>
	</g>
</g>
<g>
</g>
<g>
</g>
<g>
</g>
<g>
</g>
<g>
</g>
<g>
</g>
<g>
</g>
<g>
</g>
<g>
</g>
<g>
</g>
<g>
</g>
<g>
</g>
<g>
</g>
<g>
</g>
<g>
</g>
</svg>
