<?xml version="1.0" encoding="iso-8859-1"?>
<!-- Generator: Adobe Illustrator 19.0.0, SVG Export Plug-In . SVG Version: 6.00 Build 0)  -->
<svg xmlns="http://www.w3.org/2000/svg" xmlns:xlink="http://www.w3.org/1999/xlink" version="1.1" id="Capa_1" x="0px" y="0px" viewBox="0 0 512 512" style="enable-background:new 0 0 512 512;" xml:space="preserve" width="512px" height="512px">
<g>
	<g>
		<g>
			<path d="M485.26,274.51l-105.615-17.604L349.042,211c-7.927-11.896-21.198-19-35.5-19h-36.208v-45.427     c8.417,1.75,16.031,2.76,21.333,2.76c23.531,0,42.667-19.135,42.667-42.667S322.198,64,298.667,64     c-11.479,0-34.76,4.833-53.333,12.198C226.76,68.833,203.479,64,192,64c-23.531,0-42.667,19.135-42.667,42.667     s19.135,42.667,42.667,42.667c5.302,0,12.917-1.01,21.333-2.76V192h-57.542c-14.302,0-27.573,7.104-35.5,19l-30.875,46.323     l-65.188,16.292C9.969,277.177,0,289.948,0,304.656v53.594c0,12.573,4.896,24.396,13.792,33.292     c8.896,8.896,20.719,13.792,33.292,13.792h28.663C80.702,429.647,102.246,448,128,448s47.298-18.353,52.254-42.667h140.826     c4.956,24.314,26.5,42.667,52.254,42.667s47.298-18.353,52.254-42.667h47.819c8.146,0,15.458-4.521,19.083-11.792l17.26-34.521     c0.375-0.75,0.656-1.542,0.844-2.354l1.115-4.708c0.198-0.813,0.292-1.646,0.292-2.479v-43.406     C512,290.354,500.75,277.083,485.26,274.51z M192,128c-11.76,0-21.333-9.573-21.333-21.333c0-11.76,9.573-21.333,21.333-21.333     c8.635,0,32.042,4.75,49.063,12.188c2.729,1.188,5.813,1.188,8.542,0c17.021-7.438,40.427-12.188,49.063-12.188     c11.76,0,21.333,9.573,21.333,21.333c0,11.76-9.573,21.333-21.333,21.333c-4.885,0-16.094-1.656-29.146-5.281     c-3.219-0.885-6.646-0.24-9.313,1.792c-2.646,2.01-4.208,5.156-4.208,8.49v59h-21.333v-59c0-3.333-1.563-6.479-4.208-8.49     c-2.677-2.031-6.156-2.677-9.313-1.792C208.094,126.344,196.885,128,192,128z M128,426.667c-17.646,0-32-14.354-32-32     s14.354-32,32-32s32,14.354,32,32S145.646,426.667,128,426.667z M373.333,426.667c-17.646,0-32-14.354-32-32s14.354-32,32-32     c17.646,0,32,14.354,32,32S390.979,426.667,373.333,426.667z M490.667,348.24L473.406,384h-47.819     c-4.956-24.314-26.5-42.667-52.254-42.667S326.035,359.686,321.079,384H180.254c-4.956-24.314-26.5-42.667-52.254-42.667     S80.702,359.686,75.746,384H47.083c-6.875,0-13.344-2.677-18.208-7.542c-4.865-4.865-7.542-11.333-7.542-18.208v-53.594     c0-4.906,3.323-9.156,8.073-10.354l69.177-17.292c2.573-0.635,4.823-2.219,6.292-4.427l33.167-49.75     c3.969-5.948,10.604-9.5,17.75-9.5H224h42.667h46.875c7.146,0,13.781,3.552,17.75,9.5l33.167,49.75     c1.635,2.458,4.208,4.125,7.125,4.604l110.177,18.365c5.156,0.854,8.906,5.281,8.906,10.521V348.24z" fill="#3498db"/>
			<path d="M317.24,240.302c-1.854-3.469-5.469-5.635-9.406-5.635H161.5c-3.938,0-7.552,2.167-9.406,5.635l-22.833,42.667     c-1.771,3.302-1.667,7.292,0.26,10.51c1.927,3.219,5.396,5.188,9.146,5.188h192c3.75,0,7.219-1.969,9.146-5.188     c1.927-3.219,2.031-7.208,0.26-10.51L317.24,240.302z M156.469,277.333L167.885,256h133.563l11.417,21.333H156.469z" fill="#3498db"/>
			<circle cx="288" cy="106.667" r="10.667" fill="#3498db"/>
			<circle cx="202.667" cy="106.667" r="10.667" fill="#3498db"/>
		</g>
	</g>
</g>
<g>
</g>
<g>
</g>
<g>
</g>
<g>
</g>
<g>
</g>
<g>
</g>
<g>
</g>
<g>
</g>
<g>
</g>
<g>
</g>
<g>
</g>
<g>
</g>
<g>
</g>
<g>
</g>
<g>
</g>
</svg>
